<?xml version="1.0" encoding="utf-8"?>
<!-- Generator: Adobe Illustrator 26.0.0, SVG Export Plug-In . SVG Version: 6.00 Build 0)  -->
<svg version="1.1" id="Calque_1" xmlns="http://www.w3.org/2000/svg" xmlns:xlink="http://www.w3.org/1999/xlink" x="0px" y="0px"
	 viewBox="0 0 29 28.3" style="enable-background:new 0 0 29 28.3;" xml:space="preserve">
<style type="text/css">
	.st0{fill:url(#SVGID_1_);}
	.st1{fill:#FFFFFF;}
</style>
<linearGradient id="SVGID_1_" gradientUnits="userSpaceOnUse" x1="7.9769" y1="28.1513" x2="18.6574" y2="4.12">
	<stop  offset="0" style="stop-color:#9454DD"/>
	<stop  offset="1" style="stop-color:#F573DA"/>
</linearGradient>
<path class="st0" d="M23.6,27.7H4.5c-2,0-3.6-1.6-3.6-3.6V5c0-2,1.6-3.6,3.6-3.6h19.1c2,0,3.6,1.6,3.6,3.6v19.1
	C27.2,26.1,25.6,27.7,23.6,27.7z"/>
<path class="st1" d="M13.9,10.5c0.1,0.5,0.1,1,0,1.4c-0.1,0.4-0.3,0.9-0.6,1.3c-0.5,0.6-1.2,1-2,1.2v8.1c0,0.4-0.1,0.8-0.4,1.1
	c-0.3,0.3-0.7,0.4-1.1,0.4c-0.4,0-0.7-0.2-1-0.4c-0.3-0.3-0.5-0.7-0.5-1.1v-8.1c-0.8-0.1-1.5-0.6-2-1.2C6,12.9,5.8,12.4,5.7,12
	c-0.1-0.5-0.1-1,0-1.4l1.1-5.1c0-0.1,0.1-0.3,0.2-0.4C7.2,5,7.4,4.9,7.5,5C7.7,5,7.8,5,7.9,5.2C8,5.3,8.1,5.4,8.1,5.6v5.4h0.6
	l0.6-5.5c0-0.1,0.1-0.2,0.2-0.3C9.6,5,9.7,5,9.8,5c0.2,0,0.3,0,0.4,0.1c0.1,0.1,0.1,0.2,0.2,0.3l0.6,5.5h0.6V5.6
	c0-0.1,0.1-0.3,0.1-0.4C11.9,5,12,5,12.2,5c0.1,0,0.3,0,0.4,0.1c0.1,0.1,0.2,0.2,0.2,0.4L13.9,10.5z M22.4,22.6
	c0,0.4-0.2,0.8-0.4,1.1s-0.7,0.4-1.1,0.4c-0.4,0-0.8-0.2-1.1-0.4s-0.4-0.7-0.4-1.1v-4.5h-0.6c-0.3,0-0.6-0.1-0.9-0.2
	c-0.3-0.1-0.6-0.3-0.8-0.5c-0.2-0.2-0.4-0.5-0.5-0.8c-0.1-0.3-0.1-0.6-0.1-0.9l0-4.3c0-1.4,0.4-2.7,1.2-3.9c0.8-1.1,1.9-2,3.2-2.5
	C20.9,5,21.1,4.9,21.3,5c0.2,0,0.4,0.1,0.5,0.2c0.2,0.1,0.3,0.3,0.4,0.4c0.1,0.2,0.1,0.4,0.1,0.6V22.6z"/>
<image style="overflow:visible;" width="1427" height="578" xlink:href="9AFBC1A2.jpg"  transform="matrix(0.2929 0 0 0.2929 -141.6702 -217.0871)">
</image>
</svg>
