<svg xmlns="http://www.w3.org/2000/svg" viewBox="0 0 59.16 213.32"><defs><style>.cls-1{fill:#fff;}</style></defs><g id="Calque_2" data-name="Calque 2"><g id="Calque_1-2" data-name="Calque 1"><path class="cls-1" d="M36,142.16c0-18.72,0-37.45,0-56.17,0-2.72.93-4.21,3.46-5.53,8.28-4.35,12.19-11.6,12.24-20.82.11-18,0-36,0-53.94,0-4,1.15-5.75,3.78-5.68s3.64,1.78,3.64,5.63c0,17.65,0,35.3,0,53,0,11.77-4.53,21-14.45,27.64a4.14,4.14,0,0,0-1.22,3.07q-.09,54.81-.05,109.62c0,7.15-4.47,12.78-11.11,14.1a13.81,13.81,0,0,1-16.61-13.75c-.05-15.84,0-31.68,0-47.51q0-31.42-.07-62.86a3.77,3.77,0,0,0-1.32-2.77C5,80,.2,71.25.1,60.16-.08,41.61,0,23.05.06,4.49c0-3.14,2-5,4.55-4.37C7,.68,7.48,2.5,7.48,4.67q0,19.17,0,38.35c0,6.52-.27,13.06.28,19.54C8.47,71,12.82,77.22,20.58,80.87a4.25,4.25,0,0,1,2.61,4.32q-.06,56.66-.06,113.33a11.72,11.72,0,0,0,.09,2,6.55,6.55,0,0,0,6.71,5.41A6.43,6.43,0,0,0,36,199.32c.06-8.16,0-16.33,0-24.49Z"/><path class="cls-1" d="M34.49,31.83q0-13.72,0-27.44c0-2.93,1.62-4.6,4.1-4.35,2.14.21,3.3,1.71,3.3,4.42,0,11.54,0,23.07,0,34.61,0,6.67,0,13.35,0,20,0,2.93-1.34,4.59-3.62,4.65S34.5,62.08,34.5,59Q34.49,45.43,34.49,31.83Z"/><path class="cls-1" d="M24.65,31.92c0,9.06.07,18.13-.06,27.19A5.81,5.81,0,0,1,23.06,63c-2.17,1.94-5.47.3-5.77-2.74-.18-1.8-.06-3.62-.06-5.44V5.86c0-.66,0-1.32,0-2C17.42,1.42,19-.07,21.16,0s3.46,1.54,3.48,4c0,4.95,0,9.89,0,14.83Z"/></g></g></svg>