<svg xmlns="http://www.w3.org/2000/svg" viewBox="0 0 46.38 213.89"><defs><style>.cls-1{fill:#fff;}</style></defs><g id="Calque_2" data-name="Calque 2"><g id="Calque_1-2" data-name="Calque 1"><path class="cls-1" d="M46.37,107q0,46.14,0,92.3c0,7.83-5.19,13.87-12.36,14.52-8.45.76-15.27-5.2-15.37-13.68-.11-10.55,0-21.11,0-31.67,0-13.45,0-26.89,0-40.34,0-1.9-.48-2.64-2.44-3.08C4.2,122.34-1.5,113.88.34,101.73c.3-2,.73-4,1.15-6.07C7.07,68.79,12.6,41.91,18.31,15.07a25.75,25.75,0,0,1,3.56-8.82A13.45,13.45,0,0,1,37.48.7C43,2.56,46.35,7.59,46.36,14.2q0,30.93,0,61.87ZM39,106.91q0-45.52,0-91.06a17.35,17.35,0,0,0-.26-3.68c-1-4.66-5.81-6.43-9.23-3.11a14.08,14.08,0,0,0-3.68,6.73c-3.6,16.42-6.94,32.9-10.34,49.36-2.64,12.75-5.35,25.49-7.8,38.28-1.35,7,1.82,11.86,8.66,14a25.37,25.37,0,0,0,4.59.91c4.37.49,5.15,1.31,5.15,5.8v74a24.64,24.64,0,0,0,.07,2.72A6.3,6.3,0,0,0,32,206.44c4.24.24,6.92-2.73,6.92-7.72Q39,152.82,39,106.91Z"/></g></g></svg>