<svg xmlns="http://www.w3.org/2000/svg" viewBox="0 0 308.2 202"><defs><style>.cls-1{fill:#fff;}.cls-2{fill:none;stroke:#fff;stroke-linecap:round;stroke-linejoin:round;stroke-width:7px;}</style></defs><g id="Calque_2" data-name="Calque 2"><g id="Calque_1-2" data-name="Calque 1"><path class="cls-1" d="M157.2,7a94,94,0,1,1-94,94,94.11,94.11,0,0,1,94-94m0-7a101,101,0,1,0,101,101A101,101,0,0,0,157.2,0Z"/><path class="cls-2" d="M92.16,57.92A78,78,0,1,1,79.2,101"/><path class="cls-1" d="M308.2,102q0,39.18,0,78.36c0,6.65-4.41,11.78-10.5,12.33a11.59,11.59,0,0,1-13-11.61c-.1-9,0-17.93,0-26.89,0-11.42,0-22.83,0-34.25,0-1.62-.41-2.24-2.07-2.61-10.2-2.31-15-9.49-13.48-19.81.26-1.72.63-3.44,1-5.15,4.74-22.81,9.44-45.64,14.28-68.43a22,22,0,0,1,3-7.48,11.4,11.4,0,0,1,13.25-4.71c4.66,1.57,7.53,5.85,7.54,11.46q0,26.27,0,52.52Zm-6.3-.07q0-38.67,0-77.32a14.85,14.85,0,0,0-.22-3.13c-.88-3.95-4.93-5.45-7.84-2.64a11.93,11.93,0,0,0-3.12,5.72c-3.06,13.94-5.89,27.93-8.78,41.91-2.24,10.82-4.54,21.64-6.62,32.49-1.15,6,1.54,10.08,7.35,11.87a21.38,21.38,0,0,0,3.9.78c3.71.41,4.37,1.12,4.37,4.92v62.82a19.8,19.8,0,0,0,.06,2.31,5.36,5.36,0,0,0,5,4.77c3.59.2,5.87-2.33,5.87-6.56Z"/><path class="cls-1" d="M30.58,131.66c0-15.89,0-31.79,0-47.69,0-2.3.79-3.57,2.93-4.7,7-3.69,10.35-9.85,10.4-17.67.09-15.27,0-30.53,0-45.8,0-3.42,1-4.88,3.21-4.82s3.09,1.51,3.09,4.78c0,15,0,30,0,45,0,10-3.85,17.88-12.27,23.47a3.59,3.59,0,0,0-1,2.61q-.08,46.53,0,93.07c0,6.07-3.79,10.85-9.43,12a11.72,11.72,0,0,1-14.1-11.68c0-13.44,0-26.89,0-40.33q0-26.68-.06-53.37a3.3,3.3,0,0,0-1.12-2.36C4.26,78.85.17,71.45.08,62c-.14-15.75,0-31.51,0-47.27,0-2.66,1.67-4.22,3.86-3.71,2,.48,2.44,2,2.44,3.87q0,16.28,0,32.56c0,5.53-.23,11.09.24,16.59A18,18,0,0,0,17.47,79.62a3.62,3.62,0,0,1,2.22,3.67q-.06,48.1-.05,96.22a9.41,9.41,0,0,0,.08,1.68,5.56,5.56,0,0,0,5.69,4.59,5.47,5.47,0,0,0,5.16-5.58c0-6.94,0-13.87,0-20.8Z"/><path class="cls-1" d="M29.29,38q0-11.66,0-23.3c0-2.49,1.38-3.9,3.48-3.69,1.82.18,2.81,1.45,2.81,3.75,0,9.8,0,19.59,0,29.38,0,5.67,0,11.34,0,17,0,2.49-1.13,3.9-3.07,3.95s-3.22-1.41-3.22-4Q29.28,49.54,29.29,38Z"/><path class="cls-1" d="M20.93,38.07c0,7.69.05,15.39-.06,23.08a4.87,4.87,0,0,1-1.3,3.28c-1.83,1.64-4.63.26-4.89-2.33-.15-1.53,0-3.08,0-4.62V15.93c0-.55,0-1.12,0-1.67C14.79,12.17,16.09,10.9,18,11s2.93,1.31,3,3.37c0,4.2,0,8.4,0,12.59Z"/></g></g></svg>