<svg xmlns="http://www.w3.org/2000/svg" viewBox="0 0 68 69"><defs><style>.cls-1{fill:none;stroke:#fff;stroke-linecap:round;stroke-linejoin:round;stroke-width:7px;}.cls-2{fill:#fff;}</style></defs><g id="Calque_2" data-name="Calque 2"><g id="Calque_1-2" data-name="Calque 1"><path class="cls-1" d="M64.5,31.5A13,13,0,0,0,46.09,19.69a13,13,0,0,0-23.77-9.8A12.91,12.91,0,0,0,16.5,8.5c-.46,0-.92,0-1.37.07A10.55,10.55,0,0,0,14,8.5a9.5,9.5,0,0,0-9.31,7.58,13,13,0,0,0,6.14,17.1,17.3,17.3,0,0,0-.33,3.32,17,17,0,0,0,17,17,17.19,17.19,0,0,0,2-.13,11,11,0,0,0,.18,1.49,13,13,0,1,0,23-10.42A13,13,0,0,0,64.5,31.5Z"/><circle class="cls-2" cx="31.5" cy="21.5" r="3"/><circle class="cls-2" cx="48.5" cy="34.5" r="3"/></g></g></svg>