<svg xmlns="http://www.w3.org/2000/svg" viewBox="0 0 90.49 142.8"><defs><style>.cls-1{fill:none;stroke:#fff;stroke-linecap:round;stroke-linejoin:round;stroke-width:7px;}</style></defs><g id="Calque_2" data-name="Calque 2"><g id="Calque_1-2" data-name="Calque 1"><path class="cls-1" d="M6.8,64C3.89,53.05,2.09,43.52,4.93,33.67A41.09,41.09,0,0,1,84,33c1.09,3.69,1.88,7.48,2.6,11.26,1.41,7.44-.78,13.68-6.29,18.92-11,10.45-12.51,22.12-4.35,35.17,3.88,6.23,6.59,12.6,5.37,20.11-1.61,9.93-9,18-18.38,20.13-10.7,2.37-20.73-1.22-26.57-10C22.77,108.26,11.92,86.62,6.8,64ZM53.39,26.51A9.29,9.29,0,1,0,64.24,34,9.32,9.32,0,0,0,53.39,26.51Z"/></g></g></svg>